<svg width="159" height="124" fill="none" xmlns="http://www.w3.org/2000/svg"><path d="M.25 75.796 27.527.963l25.96 9.462L48.8 23.278l-8.71-3.175-17.907 49.128 8.71 3.175-4.685 12.853L.25 75.796Zm53.01 3.23c-3.607-1.315-6.433-3.111-8.477-5.39-2.023-2.333-3.282-4.836-3.777-7.507-.475-2.727-.27-5.303.613-7.727 1.11-3.044 2.737-5.229 4.88-6.555 2.165-1.382 5.102-1.908 8.813-1.577 3.712.33 8.442 1.544 14.192 3.64l4.143 1.51-2.897 7.949-4.481-1.634c-1.692-.616-3.201-.943-4.529-.98-1.271-.016-2.34.2-3.207.651a3.364 3.364 0 0 0-1.647 1.89c-.39 1.072-.342 2.079.144 3.023.543.964 1.575 1.723 3.097 2.278 1.184.431 2.348.568 3.49.41 1.2-.137 2.247-.554 3.139-1.25.913-.754 1.596-1.75 2.048-2.99l3.79-10.401c.576-1.578.47-2.863-.32-3.853-.767-1.046-2.279-1.98-4.534-2.802a30.354 30.354 0 0 0-6.873-1.643c-2.327-.273-4.936-.298-7.827-.075l-.206-13.103c2.805-.51 6.08-.562 9.827-.154a46.198 46.198 0 0 1 10.863 2.523c3.72 1.356 6.844 3.037 9.37 5.044 2.582 2.026 4.3 4.409 5.154 7.147l-3.636-1.326c3.071-1.243 5.937-1.922 8.598-2.038 2.68-.172 5.487.276 8.418 1.344 6.089 2.22 10.189 5.95 12.302 11.19 2.19 5.204 2.001 11.33-.567 18.376l-1.233 3.383-27.143-9.894 2.897-7.948 14.037 5.116-2.024 1.083c1.028-2.819 1.26-5.033.698-6.643-.507-1.59-1.55-2.672-3.127-3.248-1.974-.719-3.783-.484-5.43.704-1.57 1.152-2.98 3.447-4.234 6.886l-.308.846c-1.377 3.776-1.61 6.693-.699 8.75.911 2.056 3.001 3.68 6.27 4.871 2.143.781 4.3 1.344 6.474 1.69 2.194.288 4.359.215 6.497-.219l.236 13.018c-2.789.644-5.811.788-9.066.432-3.177-.392-6.373-1.174-9.586-2.345-4.848-1.767-8.637-4.074-11.367-6.921-2.674-2.827-4.386-6.101-5.137-9.824l2.621.956c-2.329 2.536-5.239 4.125-8.73 4.768-3.471.587-7.32.11-11.548-1.431Zm52.015 35.052 4.684-12.852 8.71 3.174 17.907-49.128-8.709-3.175 4.685-12.852 25.959 9.462-27.277 74.834-25.959-9.463Z" fill="#AC25FF"/></svg>