<svg width="252" height="164" fill="none" xmlns="http://www.w3.org/2000/svg"><path d="m.513 85.48 70.384-70.909 21.132 7.43 10.763 99.439-26.083-9.17-2.034-26.63 7.233 10.684L32.52 78.959l12.208-3.849-18.253 19.498L.513 85.48Zm71.55-40.65L49.138 70.285l-1.245-8.036 32.483 11.42-5.638 5.617-2.072-34.242-.603-.212Zm39.352 52.913 6.793-19.32 41.056 14.434-6.793 19.321-41.056-14.435Zm42.825 41.786 6.708-19.079 58.829-37.66-2.463 7.004-40.573-14.265 7.43-21.132 65.328 22.969-6.708 19.079-58.83 37.659 2.463-7.004 42.505 14.945-7.43 21.132-67.259-23.648Z" fill="#AC25FF"/></svg>