<svg width="223" height="43" fill="none" xmlns="http://www.w3.org/2000/svg"><path d="M0 33.624V2.26h9.459c3.181 0 5.89.468 8.126 1.406 2.235.938 4.027 2.188 5.374 3.75a14.827 14.827 0 0 1 3.01 5.242 18.71 18.71 0 0 1 .945 5.838c0 2.33-.43 4.433-1.29 6.308a14.383 14.383 0 0 1-3.439 4.773c-1.462 1.307-3.153 2.315-5.073 3.026-1.92.681-3.956 1.022-6.105 1.022H0Zm6.234-5.966h3.698c1.576 0 3.01-.199 4.3-.597 1.289-.426 2.393-1.037 3.31-1.832.946-.796 1.662-1.79 2.15-2.983.515-1.222.773-2.614.773-4.177 0-2.045-.344-3.707-1.032-4.986-.659-1.307-1.49-2.315-2.493-3.026-.975-.71-1.978-1.193-3.01-1.448-1.032-.285-1.906-.427-2.623-.427H6.234v19.476Zm33.428 6.478c-1.749 0-3.34-.341-4.773-1.023-1.404-.71-2.522-1.79-3.353-3.239-.832-1.449-1.247-3.296-1.247-5.54 0-2.102.43-3.92 1.29-5.455.86-1.534 1.992-2.713 3.396-3.537 1.405-.852 2.895-1.279 4.472-1.279 1.863 0 3.267.313 4.213.938.975.597 1.777 1.264 2.408 2.003l-.258.724.559-2.727h5.59v18.623h-6.02v-4.048l.473 1.278c-.058 0-.23.17-.516.512-.287.312-.717.696-1.29 1.15-.545.427-1.233.796-2.064 1.108-.802.341-1.762.512-2.88.512Zm1.72-4.859c.716 0 1.36-.099 1.934-.298a4.793 4.793 0 0 0 1.505-.937 6.01 6.01 0 0 0 1.118-1.577v-4.56a3.995 3.995 0 0 0-1.032-1.577 4.417 4.417 0 0 0-1.634-1.023c-.63-.255-1.333-.383-2.106-.383-.86 0-1.663.227-2.408.682a4.718 4.718 0 0 0-1.72 1.79c-.43.767-.645 1.647-.645 2.642 0 .994.23 1.889.688 2.684a5.178 5.178 0 0 0 1.806 1.876 4.84 4.84 0 0 0 2.494.681ZM57.73 15.002h6.02v18.623h-6.02V15.001Zm-.129-6.606c0-.88.344-1.605 1.032-2.173.717-.568 1.476-.852 2.279-.852.802 0 1.533.284 2.193.852.688.568 1.032 1.293 1.032 2.173 0 .881-.344 1.606-1.032 2.174-.66.54-1.39.81-2.193.81-.803 0-1.562-.27-2.279-.81-.688-.568-1.032-1.293-1.032-2.174ZM69.52 0h6.019v33.624h-6.02V0Zm13.29 42.574L95.323 15h5.417L88.616 42.574H82.81Zm5.03-8.864L78.642 15h6.75l7.094 15.726-4.643 2.983Zm16.991-31.451h6.235v25.4h14.876v5.965h-21.111V2.26Zm34.036 31.877c-1.749 0-3.34-.341-4.773-1.023-1.404-.71-2.522-1.79-3.353-3.239-.831-1.449-1.247-3.296-1.247-5.54 0-2.102.43-3.92 1.29-5.455.86-1.534 1.992-2.713 3.396-3.537 1.405-.852 2.895-1.279 4.472-1.279 1.863 0 3.267.313 4.213.938.975.597 1.777 1.264 2.408 2.003l-.258.724.559-2.727h5.589v18.623h-6.019v-4.048l.473 1.278c-.057 0-.229.17-.516.512-.287.312-.717.696-1.29 1.15-.545.427-1.232.796-2.064 1.108-.802.341-1.762.512-2.88.512Zm1.72-4.859c.716 0 1.361-.099 1.934-.298a4.797 4.797 0 0 0 1.505-.937 6.01 6.01 0 0 0 1.118-1.577v-4.56a3.984 3.984 0 0 0-1.032-1.577 4.415 4.415 0 0 0-1.634-1.023c-.63-.255-1.333-.383-2.106-.383-.86 0-1.663.227-2.408.682a4.717 4.717 0 0 0-1.72 1.79c-.43.767-.645 1.647-.645 2.642 0 .994.229 1.889.688 2.684a5.187 5.187 0 0 0 1.806 1.876 4.84 4.84 0 0 0 2.494.681Zm21.809-14.276.473 3.324-.086-.298c.659-1.165 1.59-2.103 2.794-2.813 1.204-.739 2.68-1.108 4.429-1.108 1.777 0 3.253.526 4.428 1.577 1.204 1.023 1.82 2.358 1.849 4.006v13.935h-6.019v-11.72c-.029-.823-.258-1.477-.688-1.96-.401-.51-1.089-.767-2.064-.767-.917 0-1.72.299-2.408.895-.688.597-1.218 1.407-1.59 2.43-.373 1.022-.559 2.201-.559 3.537v7.585h-6.02V15.001h5.461ZM191.751 43c-1.691 0-3.124-.199-4.299-.597-1.147-.397-2.121-.88-2.924-1.449a41.85 41.85 0 0 1-2.15-1.619l3.526-4.091a16.298 16.298 0 0 0 2.279 1.705c.888.568 2.049.852 3.482.852.946 0 1.82-.17 2.623-.512.831-.312 1.49-.78 1.978-1.406.515-.625.773-1.406.773-2.344v-4.091l.215 1.065c-.458.966-1.289 1.819-2.493 2.557-1.204.71-2.78 1.066-4.73 1.066a9.23 9.23 0 0 1-4.729-1.279 9.97 9.97 0 0 1-3.44-3.537c-.859-1.506-1.289-3.21-1.289-5.114 0-1.96.458-3.693 1.375-5.2.918-1.533 2.107-2.74 3.569-3.622 1.462-.88 3.01-1.32 4.643-1.32 1.634 0 3.039.24 4.214.724 1.204.454 2.107 1.023 2.708 1.705l-.215.554.645-2.046h5.547v18.623c0 1.819-.516 3.424-1.548 4.816-1.032 1.42-2.408 2.529-4.128 3.324-1.691.824-3.568 1.236-5.632 1.236Zm-5.116-18.964c0 .994.229 1.889.688 2.684a5.07 5.07 0 0 0 1.848 1.876c.803.454 1.692.681 2.666.681.832 0 1.562-.099 2.193-.298a5.564 5.564 0 0 0 1.72-.937 5.367 5.367 0 0 0 1.289-1.577v-4.56a3.974 3.974 0 0 0-1.16-1.577 5.134 5.134 0 0 0-1.806-1.023c-.659-.255-1.404-.383-2.236-.383-.974 0-1.863.227-2.666.682a4.84 4.84 0 0 0-1.848 1.79c-.459.767-.688 1.647-.688 2.642Zm28.282 9.972c-1.548 0-2.995-.27-4.342-.81-1.319-.54-2.437-1.292-3.354-2.259l2.494-3.28c.917.823 1.763 1.42 2.536 1.789.803.34 1.52.511 2.15.511a5.77 5.77 0 0 0 1.29-.128c.401-.113.717-.27.946-.468.229-.227.344-.512.344-.853 0-.483-.201-.866-.602-1.15-.373-.284-.86-.512-1.462-.682a53.69 53.69 0 0 0-1.935-.597c-1.719-.54-2.966-1.32-3.74-2.344-.745-1.05-1.118-2.187-1.118-3.409 0-.938.244-1.875.731-2.813.516-.966 1.318-1.761 2.408-2.386 1.117-.654 2.551-.98 4.299-.98 1.577 0 2.909.156 3.998.468a9.834 9.834 0 0 1 3.096 1.535l-2.279 3.494a7.83 7.83 0 0 0-1.848-1.065c-.66-.313-1.276-.483-1.849-.512-.516-.028-.96.029-1.333.17a2.177 2.177 0 0 0-.817.555c-.2.227-.301.469-.301.724-.028.54.172.966.602 1.279.459.312 1.032.554 1.72.724.688.17 1.361.37 2.021.597.917.284 1.705.668 2.364 1.15a4.869 4.869 0 0 1 1.505 1.748c.373.653.559 1.449.559 2.386 0 1.137-.301 2.216-.903 3.24-.573.994-1.462 1.803-2.666 2.428-1.175.626-2.679.938-4.514.938Z" fill="#C05AFF"/></svg>