<svg width="9" height="11" fill="none" xmlns="http://www.w3.org/2000/svg"><path d="M5.602 7h-2.18v.75h3.797c.14 0 .281.14.281.281v.938c0 .164-.14.281-.281.281H3.422v1.219a.27.27 0 0 1-.281.281H1.78a.27.27 0 0 1-.281-.281V9.25H.281A.27.27 0 0 1 0 8.969V8.03c0-.14.117-.281.281-.281H1.5V7H.281A.27.27 0 0 1 0 6.719V5.664c0-.14.117-.281.281-.281H1.5V.53c0-.14.117-.281.281-.281h3.82C7.595.25 9 1.61 9 3.625 9 5.617 7.594 7 5.602 7Zm-2.18-5.133v3.516H5.25c1.125 0 1.781-.703 1.781-1.758 0-1.078-.656-1.758-1.758-1.758H3.422Z" fill="#000"/></svg>