<svg width="9" height="11" viewBox="0 0 9 11" fill="none" xmlns="http://www.w3.org/2000/svg">
<path d="M5.60156 7H3.42188V7.75H7.21875C7.35938 7.75 7.5 7.89062 7.5 8.03125V8.96875C7.5 9.13281 7.35938 9.25 7.21875 9.25H3.42188V10.4688C3.42188 10.6328 3.30469 10.75 3.14062 10.75H1.78125C1.61719 10.75 1.5 10.6328 1.5 10.4688V9.25H0.28125C0.117188 9.25 0 9.13281 0 8.96875V8.03125C0 7.89062 0.117188 7.75 0.28125 7.75H1.5V7H0.28125C0.117188 7 0 6.88281 0 6.71875V5.66406C0 5.52344 0.117188 5.38281 0.28125 5.38281H1.5V0.53125C1.5 0.390625 1.61719 0.25 1.78125 0.25H5.60156C7.59375 0.25 9 1.60938 9 3.625C9 5.61719 7.59375 7 5.60156 7ZM3.42188 1.86719V5.38281H5.25C6.375 5.38281 7.03125 4.67969 7.03125 3.625C7.03125 2.54688 6.375 1.86719 5.27344 1.86719H3.42188Z" fill="black"/>
</svg>
